<?xml version="1.0" ?><!-- Uploaded to: SVG Repo, www.svgrepo.com, Generator: SVG Repo Mixer Tools -->
<svg fill="#000000" width="800px" height="800px" viewBox="0 0 512 512" data-name="Layer 1" id="Layer_1" xmlns="http://www.w3.org/2000/svg"><path d="M493.38,263.38l-89.44-81.25V80.25a4.53,4.53,0,0,0-4.53-4.54H335.64a4.53,4.53,0,0,0-4.53,4.54V116L259.05,50.51a4.54,4.54,0,0,0-6.1,0L18.62,263.38a4.53,4.53,0,0,0,3,7.88H76V458.14a4.54,4.54,0,0,0,9.07,0V266.73a4.53,4.53,0,0,0-4.54-4.53H33.39L256,60l76.59,69.58a4.53,4.53,0,0,0,7.58-3.35V84.78h54.71v99.36a4.54,4.54,0,0,0,1.48,3.35l82.25,74.71h-47.1a4.53,4.53,0,0,0-4.54,4.53V458.14a4.54,4.54,0,0,0,9.07,0V271.26h54.3a4.53,4.53,0,0,0,3-7.88Z"/><path d="M226.93,248.4c-2,0-3.58,2.9-3.58,6.48s1.61,6.48,3.58,6.48,3.58-2.9,3.58-6.48S228.91,248.4,226.93,248.4Z"/><path d="M285.07,248.4c-2,0-3.58,2.9-3.58,6.48s1.6,6.48,3.58,6.48,3.58-2.9,3.58-6.48S287,248.4,285.07,248.4Z"/><path d="M274.18,282.4a29.84,29.84,0,0,1-36.34,0,4.53,4.53,0,0,0-6.17,6.64,38.75,38.75,0,0,0,48.66,0,4.53,4.53,0,0,0-6.15-6.66Z"/><path d="M282.36,314a71.08,71.08,0,0,0,28.29-111.61c-.06-.08-.1-.17-.17-.25a2.94,2.94,0,0,0-.31-.3,71.11,71.11,0,0,0-124.82,37.61,4.81,4.81,0,0,0-.22,1.33,3.59,3.59,0,0,0,0,.47c-.21,2.2-.33,4.42-.33,6.67A71.26,71.26,0,0,0,229.64,314,89.21,89.21,0,0,0,167,399.11v59a4.53,4.53,0,0,0,9.06,0v-59a80.15,80.15,0,0,1,61.43-77.82L241,339.18,230,401a4.52,4.52,0,0,0,1.8,4.46l21.57,15.68a4.5,4.5,0,0,0,5.32,0l21.57-15.68A4.52,4.52,0,0,0,282,401l-11-61.83,3.57-17.89A80.15,80.15,0,0,1,336,399.11v59a4.53,4.53,0,0,0,9.06,0v-59A89.21,89.21,0,0,0,282.36,314ZM256,185.85a61.88,61.88,0,0,1,44.37,18.71c-35.26,26.66-88.48,31-105.35,31.67A62.19,62.19,0,0,1,256,185.85ZM193.9,248c0-.88,0-1.76.07-2.63,16.22-.46,73.49-4.21,112.26-33.83A62.09,62.09,0,1,1,193.9,248ZM256,411.88l-16.61-12.07,10.06-56.36h13.1l10.06,56.36Zm6.71-77.49H249.29l-2.93-14.69a79,79,0,0,1,19.28,0Z"/><path d="M317.3,376.12H296.77a4.54,4.54,0,0,0,0,9.07H317.3a4.54,4.54,0,0,0,0-9.07Z"/></svg>